<?xml version="1.0" encoding="utf-8"?>
<!-- Generator: Adobe Illustrator 26.0.3, SVG Export Plug-In . SVG Version: 6.00 Build 0)  -->
<svg version="1.1" id="Layer_1" xmlns="http://www.w3.org/2000/svg" xmlns:xlink="http://www.w3.org/1999/xlink" x="0px" y="0px"
	 viewBox="0 0 1200 1200" style="enable-background:new 0 0 1200 1200;" xml:space="preserve">
<style type="text/css">
	.st0{fill:#0071B7;}
</style>
<g>
	<g>
		<polygon class="st0" points="314.8,525.6 314.8,584.1 288.3,610.4 274,624.6 274,566.2 287.9,552.4 		"/>
		<polygon class="st0" points="434.7,698.4 376.7,698.4 331.6,653.5 274,653.5 302.8,624.9 303,624.6 314.8,612.9 331.8,596 
			426.7,501.6 426.7,559.2 360.7,624.9 		"/>
	</g>
	<g>
		<path class="st0" d="M551.4,661l-44.9-50.7L494,624.1v37h-27.2V525.3H494v62l55.7-62h34.6l-60,65.5l62.6,70.2H551.4z"/>
		<path class="st0" d="M658.1,560.8h25.6V661h-25.6v-12c-8.8,9.6-19.7,14.4-32.7,14.4c-14,0-25.6-5-35-15.1
			c-9.4-10.1-14-22.5-14-37.5s4.7-27.4,14-37.5c9.3-10.1,21-15.1,35-15.1c13.1,0,23.9,4.8,32.7,14.3V560.8z M630.3,638.7
			c7.9,0,14.6-2.7,19.8-8c5.3-5.3,7.9-11.9,7.9-19.8s-2.6-14.5-7.9-19.8c-5.3-5.3-11.9-8-19.8-8c-7.9,0-14.4,2.7-19.7,8
			c-5.3,5.3-7.9,11.9-7.9,19.8s2.6,14.5,7.9,19.8C615.9,636,622.5,638.7,630.3,638.7z"/>
		<path class="st0" d="M755.4,558.4c9.2,0,17.5,2.3,24.9,6.9c7.5,4.6,13.3,10.9,17.5,18.9c4.2,8,6.3,17,6.3,26.8
			c0,9.8-2.1,18.7-6.3,26.8c-4.2,8-10.1,14.3-17.5,18.9c-7.5,4.6-15.8,6.9-24.9,6.9c-13.2,0-24.1-4.8-32.7-14.4v49.4h-25.6V560.8
			h25.6v11.9C731.2,563.1,742.1,558.4,755.4,558.4z M750.3,638.7c7.9,0,14.5-2.6,19.7-7.9c5.2-5.3,7.8-11.9,7.8-19.8
			s-2.6-14.6-7.8-19.8c-5.2-5.3-11.8-7.9-19.7-7.9c-7.9,0-14.4,2.7-19.7,8c-5.3,5.3-7.9,11.9-7.9,19.8s2.6,14.5,7.9,19.8
			C735.8,636,742.4,638.7,750.3,638.7z"/>
		<path class="st0" d="M899.2,536.7h-72.4v51.5h64v11.4h-64V661h-12V525.3h84.4V536.7z"/>
		<path class="st0" d="M917.6,537.1c-2.3,0-4.3-0.8-5.9-2.4c-1.6-1.6-2.4-3.6-2.4-5.9c0-2.2,0.8-4.1,2.4-5.7
			c1.6-1.6,3.6-2.4,5.8-2.4c2.4,0,4.4,0.8,6,2.4c1.6,1.6,2.4,3.5,2.4,5.7c0,2.4-0.8,4.3-2.4,5.9
			C921.9,536.3,919.9,537.1,917.6,537.1z M911.9,661V560.8h11.4V661H911.9z"/>
	</g>
</g>
</svg>
